<svg xmlns="http://www.w3.org/2000/svg" fill="none" viewBox="0 0 14 11" height="11" width="14">
<g clip-path="url(#clip0_761_787)">
<path fill="white" d="M13.9998 7.31813V7.56381C13.8009 7.90449 13.633 7.91595 13.3629 7.6326C12.6239 6.85625 11.6841 6.53522 10.5673 6.74487C9.27716 6.98728 8.41585 7.91923 8.31548 9.11816C8.28446 9.48013 8.07643 9.68159 7.67862 9.74383C6.55818 9.91908 5.43227 10.0632 4.29541 10.1156C3.30453 10.1615 2.31183 10.1844 1.31913 10.2123C1.07826 10.2188 0.906724 10.0763 0.875702 9.85848C0.813658 9.43754 0.753439 9.01661 0.695045 8.59567C0.618403 8.04043 0.541761 7.48519 0.465118 6.92995C0.388476 6.37471 0.310009 5.82111 0.231542 5.26587C0.154899 4.71881 0.0746073 4.1734 0.00526424 3.62635C-0.0348817 3.31515 0.156724 3.13662 0.507089 3.14645C0.915848 3.15791 1.32643 3.18903 1.73519 3.19231C3.4049 3.20705 5.06366 3.10386 6.70782 2.8287C7.97059 2.61741 9.20417 2.31441 10.3867 1.86235C11.1002 1.58883 11.7772 1.25961 12.4195 0.868159C12.7279 0.679803 13.0764 0.830488 13.1239 1.16134C13.1458 1.3153 13.1713 1.46926 13.1914 1.62322C13.268 2.17846 13.3447 2.7337 13.4213 3.28895C13.498 3.83927 13.5746 4.39124 13.6512 4.94157C13.7297 5.505 13.8064 6.06843 13.8885 6.63022C13.9213 6.85952 13.9615 7.08883 13.998 7.31977L13.9998 7.31813ZM6.40672 7.34434C6.20417 7.35908 6.04724 7.45899 5.98519 7.62114C5.92315 7.7882 5.98519 7.96018 6.15125 8.06336C6.35563 8.18948 6.58373 8.25336 6.83008 8.255C6.92132 8.255 6.95782 8.28939 6.96877 8.36801C6.98154 8.46956 7.00344 8.56947 7.02534 8.66938C7.07096 8.88722 7.27716 9.01825 7.52534 8.98877C7.74067 8.9642 7.90125 8.78403 7.88118 8.57602C7.86658 8.43844 7.83921 8.30086 7.80636 8.16491C7.78994 8.0994 7.80088 8.06336 7.86658 8.02406C8.32096 7.75381 8.51986 7.37218 8.42132 6.889C8.32278 6.41074 7.99796 6.1061 7.47059 5.98326C7.22059 5.92593 6.96512 5.88171 6.71512 5.82602C6.56183 5.79163 6.46147 5.69663 6.42862 5.55741C6.3976 5.42965 6.43227 5.31336 6.55088 5.22656C6.74432 5.08406 7.14578 5.04803 7.36475 5.15449C7.59468 5.26587 7.85015 5.21345 7.97424 5.02674C8.10198 4.8351 8.03081 4.6058 7.79906 4.47968C7.60563 4.37322 7.39213 4.31753 7.16402 4.3159C7.07096 4.3159 7.03811 4.27986 7.02716 4.20288C7.01256 4.09806 6.99249 3.99323 6.96877 3.89005C6.92132 3.68367 6.72424 3.56083 6.48337 3.58213C6.27534 3.60014 6.1111 3.76393 6.1111 3.95884C6.1111 4.02272 6.12388 4.08823 6.1403 4.15211C6.1914 4.35684 6.24979 4.55994 5.95234 4.66149C5.9414 4.66476 5.93227 4.67787 5.92315 4.68606C5.57826 4.99725 5.46694 5.36578 5.60015 5.78671C5.74249 6.23713 6.08556 6.50083 6.58921 6.60401C6.81913 6.65151 7.05088 6.69246 7.27899 6.74487C7.4341 6.77927 7.53264 6.87426 7.56731 7.01185C7.59651 7.13305 7.56913 7.2477 7.45599 7.33451C7.25891 7.48683 6.8611 7.5245 6.63118 7.41804C6.56001 7.38528 6.47972 7.36727 6.4049 7.3427L6.40672 7.34434Z"></path>
<path fill="white" d="M11.1656 7.46533C12.2532 7.46533 13.1255 8.25807 13.1236 9.24243C13.1236 10.2186 12.2404 11.0015 11.1455 10.9999C10.0543 10.9999 9.18568 10.2055 9.1875 9.21131C9.1875 8.2466 10.0762 7.4637 11.1656 7.46533Z"></path>
<path fill="white" d="M7.44681 5.34281e-05C8.37382 0.0115186 9.17674 0.299785 9.85374 0.869767C10.0472 1.03192 10.0125 1.1826 9.76433 1.26613C8.94316 1.54457 8.10192 1.75914 7.2479 1.93275C7.08185 1.96715 6.94498 1.92784 6.84462 1.79517C6.53622 1.3857 6.14206 1.05812 5.66761 0.809166C5.46871 0.70598 5.47601 0.532364 5.67856 0.42754C6.22418 0.144187 6.81177 -0.00322233 7.44681 5.34281e-05Z"></path>
<path fill="white" d="M2.77929 2.42069C2.61506 2.42069 2.35046 2.42069 2.08769 2.42069C1.97637 2.42069 1.88148 2.3994 1.82856 2.29785C1.77564 2.19794 1.83221 2.12587 1.89608 2.0538C2.83039 0.994096 4.63148 0.881082 5.72637 1.81304C5.80119 1.87691 5.86506 1.94243 5.83221 2.04725C5.79937 2.15699 5.7063 2.19139 5.59681 2.20285C5.05849 2.25526 4.52199 2.31259 3.98367 2.35681C3.61688 2.38629 3.24827 2.39776 2.77929 2.42069Z"></path>
</g>
<defs>
<clipPath id="clip0_761_787">
<rect fill="white" height="11" width="14"></rect>
</clipPath>
</defs>
</svg>
