<svg xmlns="http://www.w3.org/2000/svg" fill="none" viewBox="0 0 9 11" height="11" width="9">
<g clip-path="url(#clip0_761_784)">
<path fill="white" d="M-0.000319007 1.63313C1.0018 1.44892 1.96709 1.17406 2.89687 0.761781C3.39925 0.539558 3.88847 0.277862 4.38163 0.0293244C4.45265 -0.00722531 4.50394 -0.0116113 4.57496 0.0293244C5.69148 0.676985 6.8672 1.14775 8.09551 1.4533C8.37037 1.52201 8.64786 1.57465 8.93718 1.63751V1.7881C8.93718 2.82318 8.93718 3.85827 8.93718 4.89336C8.93718 6.58049 8.35853 7.99131 7.2762 9.15506C6.50159 9.98839 5.58891 10.5761 4.57759 10.9796C4.51841 11.003 4.43818 11.0074 4.379 10.984C3.20198 10.5191 2.16436 9.81149 1.32794 8.76909C0.619099 7.88459 0.174591 6.85827 0.047025 5.67552C0.0194077 5.41529 0.00362633 5.15213 0.00231122 4.88897C-0.00294923 3.85389 -0.000319007 2.8188 -0.000319007 1.78371V1.63166V1.63313ZM3.98052 6.02201C3.94502 5.984 3.9174 5.95622 3.88978 5.92552C3.68068 5.69453 3.47158 5.46354 3.2651 5.23108C3.17831 5.13313 3.07441 5.08488 2.95079 5.0995C2.8035 5.11851 2.69697 5.2033 2.647 5.35973C2.59308 5.52932 2.62464 5.68137 2.74037 5.81003C3.04416 6.14775 3.34927 6.48693 3.65306 6.82465C3.88584 7.08196 4.06995 7.08342 4.30141 6.82465C4.88006 6.18137 5.4574 5.5381 6.03604 4.89482C6.10706 4.81587 6.18202 4.73985 6.24515 4.65359C6.34115 4.52201 6.35693 4.37289 6.28855 4.21938C6.22016 4.06734 6.10574 3.99277 5.95188 3.99277C5.82957 3.99277 5.74146 4.06003 5.65861 4.15213C5.10363 4.77201 4.54734 5.39044 3.98052 6.01909V6.02201Z"></path>
</g>
<defs>
<clipPath id="clip0_761_784">
<rect fill="white" height="11" width="8.9375"></rect>
</clipPath>
</defs>
</svg>
