<svg xmlns="http://www.w3.org/2000/svg" fill="none" viewBox="0 0 12 10" height="10" width="12">
<g clip-path="url(#clip0_761_770)">
<path fill="white" d="M5.99785 9.99996C5.09967 7.95206 4.21697 5.93907 3.3291 3.91504H8.6666C7.77921 5.93863 6.8951 7.95383 5.99785 9.99996Z"></path>
<path fill="white" d="M8.69605 3.22008H3.30273C3.30508 3.18826 3.3032 3.15999 3.30977 3.13348C3.55226 2.1261 3.79709 1.11916 4.03723 0.111342C4.05693 0.0300446 4.08554 0 4.18075 0C5.39224 0.00353466 6.60373 0.00353466 7.81522 0C7.9109 0 7.93858 0.031812 7.95781 0.112226C8.19842 1.12005 8.44278 2.12698 8.68573 3.13436C8.69183 3.15866 8.69183 3.18429 8.69605 3.22008Z"></path>
<path fill="white" d="M0 3.9141C0.057221 3.91145 0.0872386 3.9088 0.117256 3.9088C0.890678 3.9088 1.66457 3.90924 2.43799 3.90747C2.50834 3.90747 2.54774 3.92117 2.57729 3.98921C3.35071 5.75963 4.12695 7.52873 4.90319 9.29827C4.91022 9.31462 4.91632 9.33185 4.90694 9.35969C3.27708 7.55082 1.64722 5.74196 0 3.9141Z"></path>
<path fill="white" d="M7.06836 9.34965C7.18984 9.07174 7.31038 8.79382 7.43232 8.51635C8.08896 7.01854 8.747 5.52117 9.40082 4.02247C9.43975 3.93322 9.48618 3.90539 9.58796 3.90627C10.3422 3.91069 11.0963 3.90892 11.8501 3.90892H11.9997C10.3511 5.73855 8.72026 7.5483 7.08947 9.35849L7.06836 9.35009V9.34965Z"></path>
<path fill="white" d="M8.72267 0.187272C9.79064 1.19332 10.8661 2.20645 11.943 3.2209C11.9228 3.22178 11.8933 3.22399 11.8642 3.22399C11.0945 3.22399 10.3244 3.2231 9.55472 3.22576C9.47968 3.22576 9.4445 3.20808 9.42761 3.13606C9.19451 2.1605 8.95812 1.18581 8.72314 0.210689C8.71986 0.197434 8.72314 0.183295 8.72314 0.18683L8.72267 0.187272Z"></path>
<path fill="white" d="M2.54402 3.22006H0.0839844C1.14257 2.22284 2.21899 1.20884 3.26819 0.220459C3.03556 1.18454 2.7912 2.19722 2.54449 3.21962L2.54402 3.22006Z"></path>
</g>
<defs>
<clipPath id="clip0_761_770">
<rect fill="white" height="10" width="12"></rect>
</clipPath>
</defs>
</svg>
