<svg xmlns="http://www.w3.org/2000/svg" width="36" height="36" viewBox="0 0 36 36" fill="none"><g><path d="M26 15.0004V10.7204C26.0429 8.55224 25.2253 6.45539 23.726 4.88864C22.2268 3.32189 20.1679 2.41282 18 2.36035C15.8321 2.41282 13.7732 3.32189 12.274 4.88864C10.7747 6.45539 9.95705 8.55224 10 10.7204V15.0004H7V32.0004C7 32.5308 7.21071 33.0395 7.58579 33.4146C7.96086 33.7896 8.46957 34.0004 9 34.0004H27C27.5304 34.0004 28.0391 33.7896 28.4142 33.4146C28.7893 33.0395 29 32.5308 29 32.0004V15.0004H26ZM19 25.2304V28.0004H17V25.1404C16.5131 24.8898 16.1266 24.4804 15.9044 23.98C15.6823 23.4795 15.638 22.9182 15.7788 22.3891C15.9196 21.86 16.2371 21.3949 16.6786 21.0711C17.12 20.7472 17.659 20.5841 18.2059 20.6087C18.7529 20.6333 19.275 20.8442 19.6856 21.2064C20.0963 21.5686 20.3707 22.0603 20.4634 22.5999C20.5561 23.1395 20.4615 23.6946 20.1953 24.1731C19.9292 24.6515 19.5074 25.0246 19 25.2304ZM24 15.0004H12V10.7204C11.9569 9.08259 12.5638 7.49434 13.688 6.30263C14.8123 5.11092 16.3625 4.41263 18 4.36035C19.6375 4.41263 21.1877 5.11092 22.312 6.30263C23.4362 7.49434 24.0431 9.08259 24 10.7204V15.0004Z" fill="white"></path></g><defs><rect width="36" height="36" fill="white"></rect></defs></svg>